<svg xmlns="http://www.w3.org/2000/svg" viewBox="0 0 500 500">
  <!-- African Map Silhouette -->
  <path d="M250 80 C280 80, 320 100, 340 130 C360 160, 370 200, 360 230 C350 260, 330 280, 300 300 C270 320, 230 330, 200 320 C170 310, 140 290, 120 260 C100 230, 90 190, 100 160 C110 130, 130 100, 160 90 C190 80, 220 80, 250 80 Z" 
        fill="#2563eb" fill-opacity="0.1" stroke="#2563eb" stroke-width="2"/>
  
  <!-- Tree of Life (circuit-like branches) -->
  <path d="M250 380 L250 280" stroke="#0d9488" stroke-width="4" stroke-linecap="round"/>
  <path d="M250 280 L220 240" stroke="#0d9488" stroke-width="3" stroke-linecap="round"/>
  <path d="M250 280 L280 240" stroke="#0d9488" stroke-width="3" stroke-linecap="round"/>
  <path d="M220 240 L200 200" stroke="#0d9488" stroke-width="2" stroke-linecap="round"/>
  <path d="M220 240 L230 200" stroke="#0d9488" stroke-width="2" stroke-linecap="round"/>
  <path d="M280 240 L270 200" stroke="#0d9488" stroke-width="2" stroke-linecap="round"/>
  <path d="M280 240 L300 200" stroke="#0d9488" stroke-width="2" stroke-linecap="round"/>
  
  <!-- Circuit nodes (representing connection points) -->
  <circle cx="250" cy="280" r="6" fill="#0d9488"/>
  <circle cx="220" cy="240" r="5" fill="#0d9488"/>
  <circle cx="280" cy="240" r="5" fill="#0d9488"/>
  <circle cx="200" cy="200" r="4" fill="#0d9488"/>
  <circle cx="230" cy="200" r="4" fill="#0d9488"/>
  <circle cx="270" cy="200" r="4" fill="#0d9488"/>
  <circle cx="300" cy="200" r="4" fill="#0d9488"/>
  
  <!-- BAIFA text -->
  <text x="250" y="430" font-family="Arial, sans-serif" font-size="36" font-weight="bold" fill="#2563eb" text-anchor="middle">BAIFA</text>
  <text x="250" y="460" font-family="Arial, sans-serif" font-size="14" fill="#0d9488" text-anchor="middle">Bioinformatics & AI for Africa</text>
</svg>